<?xml version="1.0" encoding="UTF-8" standalone="no"?>
<!-- Created with Inkscape (http://www.inkscape.org/) -->

<svg
   version="1.1"
   id="svg1"
   width="890.2547"
   height="304.02267"
   viewBox="0 0 890.2547 304.02267"
   sodipodi:docname="thrust_chamber_contour.pdf"
   xmlns:inkscape="http://www.inkscape.org/namespaces/inkscape"
   xmlns:sodipodi="http://sodipodi.sourceforge.net/DTD/sodipodi-0.dtd"
   xmlns="http://www.w3.org/2000/svg"
   xmlns:svg="http://www.w3.org/2000/svg">
  <defs
     id="defs1" />
  <sodipodi:namedview
     id="namedview1"
     pagecolor="#ffffff"
     bordercolor="#000000"
     borderopacity="0.25"
     inkscape:showpageshadow="2"
     inkscape:pageopacity="0.0"
     inkscape:pagecheckerboard="0"
     inkscape:deskcolor="#d1d1d1">
    <inkscape:page
       x="0"
       y="0"
       inkscape:label="1"
       id="page1"
       width="890.2547"
       height="304.02267"
       margin="0"
       bleed="0" />
  </sodipodi:namedview>
  <g
     id="g1"
     inkscape:groupmode="layer"
     inkscape:label="1">
    <path
       id="path1"
       d="M 0,0 H 119.08925"
       style="fill:none;stroke:#000000;stroke-width:1.49442;stroke-linecap:butt;stroke-linejoin:miter;stroke-miterlimit:10;stroke-dasharray:none;stroke-opacity:1"
       transform="matrix(1.3333333,0,0,-1.3333333,52.058667,162.98667)" />
    <path
       id="path2"
       d="m 119.08371,0 c 8.2158,0 16.34232,-1.80188 23.78773,-5.27338"
       style="fill:none;stroke:#000000;stroke-width:1.49442;stroke-linecap:butt;stroke-linejoin:miter;stroke-miterlimit:10;stroke-dasharray:none;stroke-opacity:1"
       transform="matrix(1.3333333,0,0,-1.3333333,52.058667,162.98667)" />
    <path
       id="path3"
       d="m 142.86224,-5.27383 26.39431,-12.30872"
       style="fill:none;stroke:#000000;stroke-width:1.19553;stroke-linecap:butt;stroke-linejoin:miter;stroke-miterlimit:10;stroke-dasharray:none;stroke-opacity:1"
       transform="matrix(1.3333333,0,0,-1.3333333,52.058667,162.98667)" />
    <path
       id="path4"
       d="m 169.24864,-17.58157 c 7.29966,-3.40352 15.26703,-5.17014 23.32201,-5.17014"
       style="fill:none;stroke:#000000;stroke-width:1.49442;stroke-linecap:butt;stroke-linejoin:miter;stroke-miterlimit:10;stroke-dasharray:none;stroke-opacity:1"
       transform="matrix(1.3333333,0,0,-1.3333333,52.058667,162.98667)" />
    <path
       id="path5"
       d="m 192.5582,-22.75363 c 3.25636,0 6.45717,0.86667 9.26954,2.50761"
       style="fill:none;stroke:#000000;stroke-width:1.49442;stroke-linecap:butt;stroke-linejoin:miter;stroke-miterlimit:10;stroke-dasharray:none;stroke-opacity:1"
       transform="matrix(1.3333333,0,0,-1.3333333,52.058667,162.98667)" />
    <path
       id="path6"
       d="M 201.81557,-20.24496 C 310.2711,43.0432 428.9154,87.41905 552.27516,110.82791"
       style="fill:none;stroke:#000000;stroke-width:1.49442;stroke-linecap:butt;stroke-linejoin:miter;stroke-miterlimit:10;stroke-dasharray:none;stroke-opacity:1"
       transform="matrix(1.3333333,0,0,-1.3333333,52.058667,162.98667)" />
    <path
       id="path7"
       d="M -36.85304,-73.70055 H 626.46344"
       style="fill:none;stroke:#000000;stroke-width:0.3985;stroke-linecap:round;stroke-linejoin:miter;stroke-miterlimit:10;stroke-dasharray:19.9255, 7.97021, 4.98138, 7.97021;stroke-dashoffset:0;stroke-opacity:1"
       transform="matrix(1.3333333,0,0,-1.3333333,52.058667,162.98667)" />
    <path
       id="path8"
       d="m 39.65181,-73.70055 v 72.9932"
       style="fill:none;stroke:#000000;stroke-width:0.79701;stroke-linecap:butt;stroke-linejoin:miter;stroke-miterlimit:10;stroke-dasharray:none;stroke-opacity:1"
       transform="matrix(1.3333333,0,0,-1.3333333,52.058667,162.98667)" />
    <path
       id="path9"
       d="M -1.55415,2.0722 C -1.42464,1.29512 0,0.1295 0.38852,0 0,-0.1295 -1.42464,-1.29512 -1.55415,-2.0722"
       style="fill:none;stroke:#000000;stroke-width:0.6376;stroke-linecap:round;stroke-linejoin:round;stroke-miterlimit:10;stroke-dasharray:none;stroke-opacity:1"
       transform="matrix(0,-1.3333333,-1.3333333,0,104.92775,163.9298)" />
    <g
       id="g9"
       aria-label="r&#10;c"
       transform="matrix(1.3333333,0,0,1.3333333,109.88667,213.98267)">
      <path
         id="path10"
         d="m 0.87894531,-0.58465625 c -0.0351563,0.15234375 -0.09375,0.375 -0.09375,0.421875 0,0.1875 0.140625,0.26953125 0.29296879,0.26953125 0.1171875,0 0.2929687,-0.0703125 0.3632812,-0.26953125 0.023437,-0.046875 0.3632813,-1.39453125 0.3984375,-1.58203125 0.082031,-0.328125 0.2578125,-1.0195312 0.3164063,-1.2890625 0.046875,-0.1289062 0.328125,-0.5976562 0.5625,-0.8203125 0.082031,-0.070312 0.375,-0.328125 0.796875,-0.328125 0.2578125,0 0.4101562,0.1171875 0.421875,0.1171875 -0.3046875,0.046875 -0.515625,0.2929688 -0.515625,0.5507813 0,0.1640625 0.1054687,0.3515625 0.375,0.3515625 0.2695312,0 0.5507812,-0.234375 0.5507812,-0.5859375 0,-0.3515625 -0.328125,-0.65625 -0.8320312,-0.65625 -0.6445313,0 -1.0898438,0.4921875 -1.2773438,0.7734375 -0.082031,-0.4570313 -0.4335937,-0.7734375 -0.9023437,-0.7734375 -0.45703129,0 -0.64453129,0.3867187 -0.73828129,0.5742187 -0.17578125,0.3398438 -0.3046875,0.9375 -0.3046875,0.9609375 0,0.1054688 0.09375,0.1054688 0.1171875,0.1054688 0.09375,0 0.10546875,-0.011719 0.1640625,-0.234375 0.17578125,-0.703125 0.375,-1.1835938 0.72656249,-1.1835938 0.1757813,0 0.3164063,0.082031 0.3164063,0.4570313 0,0.2109375 -0.035156,0.3164062 -0.1640625,0.8320312 z m 0,0"
         style="fill:#000000;fill-opacity:1;fill-rule:nonzero;stroke:none" />
      <path
         id="path11"
         d="m 7.5527734,-1.1764531 c -0.2578125,0.046875 -0.3632812,0.23437498 -0.3632812,0.38671873 0,0.1875 0.1523437,0.2578125 0.2695312,0.2578125 0.1640625,0 0.3984375,-0.10546875 0.3984375,-0.4453125 0,-0.46875003 -0.5390625,-0.59765623 -0.9140625,-0.59765623 -1.0429687,0 -2.015625,0.96093748 -2.015625,1.92187498 0,0.609375 0.421875,1.21875002 1.2890625,1.21875002 1.1835938,0 1.734375,-0.69140627 1.734375,-0.78515627 0,-0.046875 -0.070312,-0.1171875 -0.1289062,-0.1171875 -0.035156,0 -0.046875,0.0117188 -0.1054688,0.0703125 C 7.1660547,1.3665156 6.3574609,1.3665156 6.2285547,1.3665156 c -0.5039063,0 -0.7265625,-0.3398437 -0.7265625,-0.77343747 0,-0.19921875 0.1054687,-0.9609375 0.46875,-1.44140625 0.2578125,-0.33984378 0.6210937,-0.53906248 0.9726562,-0.53906248 0.09375,0 0.4335938,0.011719 0.609375,0.2109375 z m 0,0"
         style="fill:#000000;fill-opacity:1;fill-rule:nonzero;stroke:none" />
    </g>
    <path
       id="path12"
       d="m 192.5582,-73.979 v 50.518"
       style="fill:none;stroke:#000000;stroke-width:0.79701;stroke-linecap:butt;stroke-linejoin:miter;stroke-miterlimit:10;stroke-dasharray:none;stroke-opacity:1"
       transform="matrix(1.3333333,0,0,-1.3333333,52.058667,162.98667)" />
    <path
       id="path13"
       d="M -1.55415,2.0722 C -1.42464,1.29512 0,0.1295 0.38852,0 0,-0.1295 -1.42464,-1.29512 -1.55415,-2.0722"
       style="fill:none;stroke:#000000;stroke-width:0.6376;stroke-linecap:round;stroke-linejoin:round;stroke-miterlimit:10;stroke-dasharray:none;stroke-opacity:1"
       transform="matrix(0,-1.3333333,-1.3333333,0,308.80293,194.268)" />
    <g
       id="g13"
       aria-label="r&#10;t"
       transform="matrix(1.3333333,0,0,1.3333333,313.75867,229.33733)">
      <path
         id="path14"
         d="m 0.87826563,-0.58698437 c -0.0351563,0.15234375 -0.09375,0.375 -0.09375,0.421875 0,0.1875 0.140625,0.26953125 0.29296877,0.26953125 0.1171875,0 0.2929687,-0.0703125 0.3632812,-0.26953125 0.023437,-0.046875 0.3632813,-1.39453123 0.3984375,-1.58203123 0.082031,-0.328125 0.2578125,-1.0195313 0.3164063,-1.2890625 0.046875,-0.1289063 0.328125,-0.5976563 0.5625,-0.8203125 0.082031,-0.070312 0.375,-0.328125 0.796875,-0.328125 0.2578125,0 0.4101562,0.1171875 0.421875,0.1171875 -0.3046875,0.046875 -0.515625,0.2929687 -0.515625,0.5507812 0,0.1640625 0.1054687,0.3515625 0.375,0.3515625 0.2695312,0 0.5507812,-0.234375 0.5507812,-0.5859375 0,-0.3515625 -0.328125,-0.65625 -0.8320312,-0.65625 -0.6445313,0 -1.0898438,0.4921875 -1.2773438,0.7734375 -0.082031,-0.4570312 -0.4335937,-0.7734375 -0.9023437,-0.7734375 -0.45703127,0 -0.64453127,0.3867188 -0.73828127,0.5742188 -0.17578125,0.3398437 -0.3046875,0.9375 -0.3046875,0.9609375 0,0.1054687 0.09375,0.1054687 0.1171875,0.1054687 0.09375,0 0.10546875,-0.011719 0.1640625,-0.234375 0.17578125,-0.703125 0.375,-1.1835937 0.72656247,-1.1835937 0.1757813,0 0.3164063,0.082031 0.3164063,0.4570312 0,0.2109375 -0.035156,0.3164063 -0.1640625,0.8320313 z m 0,0"
         style="fill:#000000;fill-opacity:1;fill-rule:nonzero;stroke:none" />
      <path
         id="path15"
         d="m 6.2073672,-1.2608125 h 0.7148437 c 0.1289063,0 0.2226563,0 0.2226563,-0.1523437 0,-0.09375 -0.09375,-0.09375 -0.2109375,-0.09375 h -0.65625 L 6.5354922,-2.549875 c 0,-0.023437 0.023437,-0.058594 0.023437,-0.09375 0,-0.1289062 -0.1054688,-0.2226562 -0.2460938,-0.2226562 -0.1757812,0 -0.28125,0.1171875 -0.328125,0.3046875 -0.046875,0.1757812 0.046875,-0.1640625 -0.2578125,1.0546875 H 5.0120547 c -0.1289063,0 -0.2226563,0 -0.2226563,0.1523437 0,0.09375 0.082031,0.09375 0.2109375,0.09375 h 0.65625 l -0.4101562,1.640625 c -0.035156,0.17578125 -0.1054688,0.43359375 -0.1054688,0.515625 0,0.421875 0.3515625,0.6679688 0.75,0.6679688 0.7734375,0 1.21875,-0.9726563 1.21875,-1.0664063 0,-0.09375 -0.09375,-0.09375 -0.1171875,-0.09375 -0.082031,0 -0.09375,0.0117188 -0.140625,0.12890625 -0.1992187,0.4453125 -0.5507812,0.83203125 -0.9375,0.83203125 -0.1523437,0 -0.2460937,-0.082031 -0.2460937,-0.3398437 0,-0.0703126 0.023437,-0.21093755 0.046875,-0.28125005 z m 0,0"
         style="fill:#000000;fill-opacity:1;fill-rule:nonzero;stroke:none" />
    </g>
    <path
       id="path16"
       d="M 0.70735,-88.44403 H 191.85083"
       style="fill:none;stroke:#000000;stroke-width:0.79701;stroke-linecap:butt;stroke-linejoin:miter;stroke-miterlimit:10;stroke-dasharray:none;stroke-opacity:1"
       transform="matrix(1.3333333,0,0,-1.3333333,52.058667,162.98667)" />
    <path
       id="path17"
       d="M -1.55415,2.0722 C -1.42464,1.29512 0,0.1295 0.38852,0 0,-0.1295 -1.42464,-1.29512 -1.55415,-2.0722"
       style="fill:none;stroke:#000000;stroke-width:0.6376;stroke-linecap:round;stroke-linejoin:round;stroke-miterlimit:10;stroke-dasharray:none;stroke-opacity:1"
       transform="matrix(-1.3333333,0,0,1.3333333,53.0018,280.91204)" />
    <path
       id="path18"
       d="M -1.55415,2.0722 C -1.42464,1.29512 0,0.1295 0.38852,0 0,-0.1295 -1.42464,-1.29512 -1.55415,-2.0722"
       style="fill:none;stroke:#000000;stroke-width:0.6376;stroke-linecap:round;stroke-linejoin:round;stroke-miterlimit:10;stroke-dasharray:none;stroke-opacity:1"
       transform="matrix(1.3333333,0,0,-1.3333333,307.85977,280.91204)" />
    <g
       id="g18"
       aria-label="L&#10;c"
       transform="matrix(1.3333333,0,0,1.3333333,173.204,294.94667)">
      <path
         id="path19"
         d="m 3.7259063,-6.0244531 c 0.09375,-0.3632813 0.1171875,-0.46875 1.0546875,-0.46875 0.3046875,0 0.375,0 0.375,-0.1875 0,-0.1289063 -0.1054688,-0.1289063 -0.1523438,-0.1289063 -0.328125,0 -1.1484375,0.035156 -1.4765625,0.035156 -0.3046875,0 -1.03125,-0.035156 -1.3242187,-0.035156 -0.070312,0 -0.1875,0 -0.1875,0.1992188 0,0.1171875 0.082031,0.1171875 0.28125,0.1171875 0.011719,0 0.1992187,0 0.375,0.011719 0.1757812,0.023437 0.2695312,0.035156 0.2695312,0.1640625 0,0.035156 -0.011719,0.070312 -0.046875,0.1875 l -1.3359375,5.35546878 c -0.09375,0.38671875 -0.1171875,0.46875 -0.90234375,0.46875 -0.1640625,0 -0.26953125,0 -0.26953125,0.19921875 0,0.10546875 0.09375,0.10546875 0.26953125,0.10546875 H 5.2727813 c 0.234375,0 0.2460937,0 0.3046875,-0.1640625 L 6.362625,-2.3213281 C 6.4095,-2.4267969 6.4095,-2.4502344 6.4095,-2.4619531 c 0,-0.035156 -0.035156,-0.1054688 -0.1289062,-0.1054688 -0.082031,0 -0.09375,0.046875 -0.1640625,0.2109375 -0.3398438,0.9140625 -0.7734375,2.05078128 -2.4960938,2.05078128 h -0.9375 c -0.140625,0 -0.1640625,0 -0.2226562,-0.0117188 -0.1054688,-0.0117188 -0.1289063,-0.0234375 -0.1289063,-0.10546875 0,-0.0234375 0,-0.046875 0.046875,-0.22265625 z m 0,0"
         style="fill:#000000;fill-opacity:1;fill-rule:nonzero;stroke:none" />
      <path
         id="path20"
         d="m 9.8372344,-1.17875 c -0.2578125,0.046875 -0.3632813,0.234375 -0.3632813,0.38671875 0,0.1875 0.1523438,0.2578125 0.2695313,0.2578125 0.1640625,0 0.3984376,-0.10546875 0.3984376,-0.4453125 0,-0.46874995 -0.5390626,-0.59765625 -0.9140626,-0.59765625 -1.0429688,0 -2.015625,0.9609375 -2.015625,1.921875 0,0.609375 0.421875,1.21875 1.2890625,1.21875 1.1835937,0 1.7343751,-0.69140625 1.7343751,-0.78515625 0,-0.046875 -0.07031,-0.1171875 -0.128906,-0.1171875 -0.03516,0 -0.04687,0.0117188 -0.105469,0.0703125 C 9.4505156,1.3642188 8.6419219,1.3642188 8.5130156,1.3642188 c -0.5039062,0 -0.7265625,-0.3398438 -0.7265625,-0.77343755 0,-0.19921875 0.1054688,-0.9609375 0.46875,-1.44140625 0.2578125,-0.3398437 0.6210938,-0.5390625 0.9726563,-0.5390625 0.09375,0 0.4335937,0.011719 0.609375,0.2109375 z m 0,0"
         style="fill:#000000;fill-opacity:1;fill-rule:nonzero;stroke:none" />
    </g>
    <path
       id="path21"
       d="M 193.26555,-88.44403 H 551.54169"
       style="fill:none;stroke:#000000;stroke-width:0.79701;stroke-linecap:butt;stroke-linejoin:miter;stroke-miterlimit:10;stroke-dasharray:none;stroke-opacity:1"
       transform="matrix(1.3333333,0,0,-1.3333333,52.058667,162.98667)" />
    <path
       id="path22"
       d="M -1.55415,2.0722 C -1.42464,1.29512 0,0.1295 0.38852,0 0,-0.1295 -1.42464,-1.29512 -1.55415,-2.0722"
       style="fill:none;stroke:#000000;stroke-width:0.6376;stroke-linecap:round;stroke-linejoin:round;stroke-miterlimit:10;stroke-dasharray:none;stroke-opacity:1"
       transform="matrix(-1.3333333,0,0,1.3333333,309.74607,280.91204)" />
    <path
       id="path23"
       d="M -1.55415,2.0722 C -1.42464,1.29512 0,0.1295 0.38852,0 0,-0.1295 -1.42464,-1.29512 -1.55415,-2.0722"
       style="fill:none;stroke:#000000;stroke-width:0.6376;stroke-linecap:round;stroke-linejoin:round;stroke-miterlimit:10;stroke-dasharray:none;stroke-opacity:1"
       transform="matrix(1.3333333,0,0,-1.3333333,787.44759,280.91204)" />
    <g
       id="g23"
       aria-label="L&#10;n"
       transform="matrix(1.3333333,0,0,1.3333333,540.45467,294.94667)">
      <path
         id="path24"
         d="m 3.7254062,-6.0244531 c 0.09375,-0.3632813 0.1171875,-0.46875 1.0546875,-0.46875 0.3046875,0 0.375,0 0.375,-0.1875 0,-0.1289063 -0.1054687,-0.1289063 -0.1523437,-0.1289063 -0.328125,0 -1.1484375,0.035156 -1.4765625,0.035156 -0.3046875,0 -1.03125,-0.035156 -1.3242188,-0.035156 -0.070312,0 -0.1875,0 -0.1875,0.1992188 0,0.1171875 0.082031,0.1171875 0.28125,0.1171875 0.011719,0 0.1992188,0 0.375,0.011719 0.1757813,0.023437 0.2695313,0.035156 0.2695313,0.1640625 0,0.035156 -0.011719,0.070312 -0.046875,0.1875 l -1.3359375,5.35546878 c -0.09375,0.38671875 -0.1171875,0.46875 -0.90234375,0.46875 -0.1640625,0 -0.26953125,0 -0.26953125,0.19921875 0,0.10546875 0.09375,0.10546875 0.26953125,0.10546875 H 5.2722812 c 0.234375,0 0.2460938,0 0.3046875,-0.1640625 L 6.362125,-2.3213281 C 6.409,-2.4267969 6.409,-2.4502344 6.409,-2.4619531 c 0,-0.035156 -0.035156,-0.1054688 -0.1289063,-0.1054688 -0.082031,0 -0.09375,0.046875 -0.1640625,0.2109375 -0.3398437,0.9140625 -0.7734375,2.05078128 -2.4960937,2.05078128 h -0.9375 c -0.140625,0 -0.1640625,0 -0.2226563,-0.0117188 -0.1054687,-0.0117188 -0.1289062,-0.0234375 -0.1289062,-0.10546875 0,-0.0234375 0,-0.046875 0.046875,-0.22265625 z m 0,0"
         style="fill:#000000;fill-opacity:1;fill-rule:nonzero;stroke:none" />
      <path
         id="path25"
         d="m 7.6365391,1.0595313 c -0.035156,0.082031 -0.070312,0.2578125 -0.070312,0.28125 0,0.1523437 0.1171875,0.2226562 0.234375,0.2226562 0.1289062,0 0.234375,-0.09375 0.2695312,-0.1523437 C 8.1052891,1.3525 8.1638828,1.118125 8.1990391,0.9775 8.2341953,0.84859375 8.3045078,0.52046875 8.3513828,0.3446875 8.3865391,0.19234375 8.4334141,0.04 8.4685703,-0.11234375 c 0.082031,-0.29296875 0.09375,-0.3515625 0.2929688,-0.6328125 0.1992187,-0.28124995 0.5273437,-0.64453125 1.0429687,-0.64453125 0.4101562,0 0.4101562,0.3632813 0.4101562,0.4921875 0,0.421875 -0.2929687,1.1953125 -0.4101562,1.48828125 -0.070312,0.1875 -0.1054687,0.2578125 -0.1054687,0.375 0,0.36328125 0.3046879,0.59765625 0.6679689,0.59765625 0.691406,0 1.007812,-0.9609375 1.007812,-1.06640625 0,-0.09375 -0.09375,-0.09375 -0.117187,-0.09375 -0.09375,0 -0.105469,0.046875 -0.128906,0.1171875 -0.164063,0.56250005 -0.46875,0.84375005 -0.738282,0.84375005 -0.152343,0 -0.175781,-0.09375 -0.175781,-0.2460938 0,-0.15234375 0.03516,-0.24609375 0.152344,-0.5625 0.09375,-0.2109375 0.375,-0.94921875 0.375,-1.34765625 0,-0.66796875 -0.539063,-0.78515625 -0.9023439,-0.78515625 -0.5859375,0 -0.9726563,0.3515625 -1.1835938,0.6328125 -0.046875,-0.4804687 -0.4570312,-0.6328125 -0.75,-0.6328125 -0.2929687,0 -0.4570312,0.2109375 -0.5507812,0.375 -0.1523438,0.2578125 -0.2460938,0.65625 -0.2460938,0.69140625 0,0.0820312 0.09375,0.0820312 0.1171875,0.0820312 0.09375,0 0.1054688,-0.0117188 0.1523438,-0.19921875 0.1054687,-0.4218749 0.234375,-0.7617187 0.515625,-0.7617187 0.1757812,0 0.2226562,0.1523438 0.2226562,0.3398438 0,0.1406249 -0.058594,0.3984374 -0.1054687,0.5859374 -0.046875,0.1875 -0.1171875,0.46875 -0.1523438,0.62109375 z m 0,0"
         style="fill:#000000;fill-opacity:1;fill-rule:nonzero;stroke:none" />
    </g>
    <path
       id="path26"
       d="m 119.07819,-56.2832 12.02623,54.25729"
       style="fill:none;stroke:#000000;stroke-width:0.79701;stroke-linecap:butt;stroke-linejoin:miter;stroke-miterlimit:10;stroke-dasharray:none;stroke-opacity:1"
       transform="matrix(1.3333333,0,0,-1.3333333,52.058667,162.98667)" />
    <path
       id="path27"
       d="M -1.55415,2.0722 C -1.42464,1.29512 0,0.1295 0.38852,0 0,-0.1295 -1.42464,-1.29512 -1.55415,-2.0722"
       style="fill:none;stroke:#000000;stroke-width:0.6376;stroke-linecap:round;stroke-linejoin:round;stroke-miterlimit:10;stroke-dasharray:none;stroke-opacity:1"
       transform="matrix(0.28849333,-1.30168,-1.30168,-0.28849333,226.86453,165.68788)" />
    <g
       id="g27"
       aria-label="R&#10;2"
       transform="matrix(1.3333333,0,0,1.3333333,197.944,204.94133)">
      <path
         id="path28"
         d="m 3.7392656,-6.1171328 c 0.058594,-0.234375 0.082031,-0.3398438 0.28125,-0.3632813 0.082031,-0.011719 0.3984375,-0.011719 0.5976563,-0.011719 0.7148437,0 1.8164062,0 1.8164062,0.984375 0,0.3398437 -0.1523437,1.0195312 -0.5507812,1.4179687 -0.2578125,0.2578125 -0.7851563,0.5742188 -1.6757813,0.5742188 H 3.0947344 Z m 1.4296875,2.7304687 c 1.0078125,-0.2226562 2.1914063,-0.9140625 2.1914063,-1.921875 0,-0.8554687 -0.890625,-1.5 -2.203125,-1.5 H 2.3212969 c -0.1992188,0 -0.2929688,0 -0.2929688,0.1992188 0,0.1171875 0.09375,0.1171875 0.28125,0.1171875 0.023437,0 0.2109375,0 0.3867188,0.011719 0.1757812,0.023437 0.2578125,0.035156 0.2578125,0.1640625 0,0.035156 0,0.070312 -0.035156,0.1875 l -1.3359375,5.35546879 c -0.09375,0.38671875 -0.1171875,0.46875 -0.90234372,0.46875 -0.17578125,0 -0.26953125,0 -0.26953125,0.19921875 0,0.1054687475 0.1171875,0.1054687475 0.140625,0.1054687475 0.28125,0 0.97265627,-0.0351562475 1.25390627,-0.0351562475 0.28125,0 0.984375,0.0351562475 1.265625,0.0351562475 0.082031,0 0.1992187,0 0.1992187,-0.1992187475 0,-0.10546875 -0.09375,-0.10546875 -0.28125,-0.10546875 -0.3632812,0 -0.6445312,0 -0.6445312,-0.1875 0,-0.0585938 0.011719,-0.10546875 0.023437,-0.1640625 l 0.65625,-2.63671879 h 1.1953125 c 0.9023437,0 1.078125,0.5507813 1.078125,0.9023438 0,0.1523437 -0.082031,0.4570312 -0.140625,0.6914062 -0.070312,0.2695313 -0.1523438,0.6445313 -0.1523438,0.84375004 0,1.078125 1.1953125,1.078125 1.3242188,1.078125 0.84375,0 1.1953125,-1.0078125 1.1953125,-1.1484375 0,-0.11718754 -0.1171875,-0.11718754 -0.1171875,-0.11718754 -0.09375,0 -0.1171875,0.0703125 -0.1289063,0.14062504 C 7.0205156,-0.16400781 6.5986406,5.46875e-5 6.3642656,5.46875e-5 c -0.328125,0 -0.3984375,-0.2226562475 -0.3984375,-0.6093749975 0,-0.3046875 0.058594,-0.82031249 0.1054688,-1.13671879 0.011719,-0.140625 0.035156,-0.328125 0.035156,-0.46875 0,-0.7617187 -0.6679687,-1.078125 -0.9374998,-1.171875 z m 0,0"
         style="fill:#000000;fill-opacity:1;fill-rule:nonzero;stroke:none" />
      <path
         id="path29"
         d="m 11.081063,0.22857031 h -0.234375 c -0.02344,0.15234375 -0.08203,0.5625 -0.175782,0.6328125 -0.05859,0.0351563 -0.597656,0.0351563 -0.691406,0.0351563 H 8.6904375 c 0.7382813,-0.64453125 0.984375,-0.84375 1.3945315,-1.171875 0.515625,-0.41015625 0.996094,-0.84374991 0.996094,-1.49999991 0,-0.84375 -0.738282,-1.359375 -1.6289067,-1.359375 -0.8671875,0 -1.453125,0.609375 -1.453125,1.2421875 0,0.3632812 0.3046875,0.3984375 0.375,0.3984375 0.1640625,0 0.375,-0.1171875 0.375,-0.375 0,-0.1289063 -0.058594,-0.3632814 -0.421875,-0.3632814 0.2226562,-0.5039061 0.6914062,-0.65625 1.0195312,-0.65625 0.7031255,0 1.0664065,0.5507814 1.0664065,1.1132814 0,0.609375 -0.433594,1.08984366 -0.6562502,1.33593741 l -1.6875,1.66406249 c -0.070312,0.058594 -0.070312,0.070312 -0.070312,0.2695312 h 2.8828122 z m 0,0"
         style="fill:#000000;fill-opacity:1;fill-rule:nonzero;stroke:none" />
    </g>
    <path
       id="path30"
       d="M 192.5582,32.42761 180.76816,-20.75006"
       style="fill:none;stroke:#000000;stroke-width:0.79701;stroke-linecap:butt;stroke-linejoin:miter;stroke-miterlimit:10;stroke-dasharray:none;stroke-opacity:1"
       transform="matrix(1.3333333,0,0,-1.3333333,52.058667,162.98667)" />
    <path
       id="path31"
       d="M -1.55415,2.0722 C -1.42464,1.29512 0,0.1295 0.38852,0 0,-0.1295 -1.42464,-1.29512 -1.55415,-2.0722"
       style="fill:none;stroke:#000000;stroke-width:0.6376;stroke-linecap:round;stroke-linejoin:round;stroke-miterlimit:10;stroke-dasharray:none;stroke-opacity:1"
       transform="matrix(-0.28857333,1.3016533,1.3016533,0.28857333,293.08289,190.6534)" />
    <g
       id="g31"
       aria-label="R&#10;1"
       transform="matrix(1.3333333,0,0,1.3333333,279.83467,159.204)">
      <path
         id="path32"
         d="m 3.7392344,-6.1178437 c 0.058594,-0.234375 0.082031,-0.3398438 0.28125,-0.3632813 0.082031,-0.011719 0.3984375,-0.011719 0.5976562,-0.011719 0.7148438,0 1.8164063,0 1.8164063,0.984375 0,0.3398437 -0.1523438,1.0195312 -0.5507813,1.4179687 -0.2578125,0.2578125 -0.7851562,0.5742188 -1.6757812,0.5742188 H 3.0947031 Z m 1.4296875,2.7304687 c 1.0078125,-0.2226562 2.1914062,-0.9140625 2.1914062,-1.921875 0,-0.8554687 -0.890625,-1.5 -2.203125,-1.5 H 2.3212656 c -0.1992187,0 -0.2929687,0 -0.2929687,0.1992188 0,0.1171875 0.09375,0.1171875 0.28125,0.1171875 0.023437,0 0.2109375,0 0.3867187,0.011719 0.1757813,0.023437 0.2578125,0.035156 0.2578125,0.1640625 0,0.035156 0,0.070312 -0.035156,0.1875 l -1.3359375,5.35546875 c -0.09375,0.38671875 -0.1171875,0.46875 -0.90234378,0.46875 -0.17578125,0 -0.26953125,0 -0.26953125,0.19921875 0,0.10546875 0.1171875,0.10546875 0.140625,0.10546875 0.28125,0 0.97265623,-0.03515625 1.25390623,-0.03515625 0.28125,0 0.984375,0.03515625 1.265625,0.03515625 0.082031,0 0.1992188,0 0.1992188,-0.19921875 0,-0.10546875 -0.09375,-0.10546875 -0.28125,-0.10546875 -0.3632813,0 -0.6445313,0 -0.6445313,-0.1875 0,-0.0585938 0.011719,-0.10546875 0.023437,-0.1640625 l 0.65625,-2.63671875 h 1.1953125 c 0.9023438,0 1.078125,0.5507813 1.078125,0.9023438 0,0.1523437 -0.082031,0.4570312 -0.140625,0.6914062 -0.070312,0.2695313 -0.1523437,0.6445313 -0.1523437,0.84375 0,1.078125 1.1953125,1.078125 1.3242187,1.078125 0.84375,0 1.1953125,-1.0078125 1.1953125,-1.1484375 0,-0.1171875 -0.1171875,-0.1171875 -0.1171875,-0.1171875 -0.09375,0 -0.1171875,0.0703125 -0.1289062,0.140625 -0.2578125,0.73828125 -0.6796875,0.90234375 -0.9140625,0.90234375 -0.328125,0 -0.3984375,-0.22265625 -0.3984375,-0.609375 0,-0.3046875 0.058594,-0.82031245 0.1054687,-1.13671875 0.011719,-0.140625 0.035156,-0.328125 0.035156,-0.46875 0,-0.7617187 -0.6679688,-1.078125 -0.9374994,-1.1718753 z m 0,0"
         style="fill:#000000;fill-opacity:1;fill-rule:nonzero;stroke:none" />
      <path
         id="path33"
         d="m 9.8974375,-2.9362031 c 0,-0.1875 -0.011719,-0.1992188 -0.2109375,-0.1992188 -0.4453125,0.4335938 -1.078125,0.4453125 -1.359375,0.4453125 v 0.2460938 c 0.1640625,0 0.6210937,0 1.0078125,-0.1875 v 3.55078123 c 0,0.23437497 0,0.32812497 -0.6914063,0.32812497 H 8.374 v 0.2460938 c 0.1289062,-0.011719 0.984375,-0.023437 1.2421875,-0.023437 0.2109375,0 1.0898435,0.011719 1.2421875,0.023437 V 1.2473906 h -0.257813 c -0.7031245,0 -0.7031245,-0.09375 -0.7031245,-0.32812497 z m 0,0"
         style="fill:#000000;fill-opacity:1;fill-rule:nonzero;stroke:none" />
    </g>
    <path
       id="path34"
       d="m 192.5493,-4.36061 4.61188,-17.06886"
       style="fill:none;stroke:#000000;stroke-width:0.79701;stroke-linecap:butt;stroke-linejoin:miter;stroke-miterlimit:10;stroke-dasharray:none;stroke-opacity:1"
       transform="matrix(1.3333333,0,0,-1.3333333,52.058667,162.98667)" />
    <path
       id="path35"
       d="M -1.55415,2.0722 C -1.42464,1.29512 0,0.1295 0.38852,0 0,-0.1295 -1.42464,-1.29512 -1.55415,-2.0722"
       style="fill:none;stroke:#000000;stroke-width:0.6376;stroke-linecap:round;stroke-linejoin:round;stroke-miterlimit:10;stroke-dasharray:none;stroke-opacity:1"
       transform="matrix(0.34776,1.2871467,1.2871467,-0.34776,314.94024,191.55929)" />
    <g
       id="g35"
       aria-label="R&#10;3"
       transform="matrix(1.3333333,0,0,1.3333333,313.74667,172.34267)">
      <path
         id="path36"
         d="m 3.7378516,-6.116375 c 0.058594,-0.234375 0.082031,-0.3398437 0.28125,-0.3632812 0.082031,-0.011719 0.3984375,-0.011719 0.5976562,-0.011719 0.7148438,0 1.8164063,0 1.8164063,0.984375 0,0.3398438 -0.1523438,1.0195313 -0.5507813,1.4179688 -0.2578125,0.2578125 -0.7851562,0.5742187 -1.6757812,0.5742187 H 3.0933203 Z m 1.4296875,2.7304688 c 1.0078125,-0.2226563 2.1914062,-0.9140625 2.1914062,-1.921875 0,-0.8554688 -0.890625,-1.5 -2.203125,-1.5 H 2.3198828 c -0.1992187,0 -0.2929687,0 -0.2929687,0.1992187 0,0.1171875 0.09375,0.1171875 0.28125,0.1171875 0.023437,0 0.2109375,0 0.3867187,0.011719 0.1757813,0.023437 0.2578125,0.035156 0.2578125,0.1640625 0,0.035156 0,0.070312 -0.035156,0.1875 L 1.5816016,-0.772625 c -0.09375,0.38671875 -0.1171875,0.46875 -0.90234379,0.46875 -0.17578125,0 -0.26953125,0 -0.26953125,0.19921875 0,0.10546875 0.1171875,0.10546875 0.140625,0.10546875 0.28125,0 0.97265624,-0.03515625 1.25390624,-0.03515625 0.28125,0 0.984375,0.03515625 1.265625,0.03515625 0.082031,0 0.1992188,0 0.1992188,-0.19921875 0,-0.10546875 -0.09375,-0.10546875 -0.28125,-0.10546875 -0.3632813,0 -0.6445313,0 -0.6445313,-0.1875 0,-0.0585938 0.011719,-0.10546875 0.023437,-0.1640625 l 0.65625,-2.6367187 h 1.1953125 c 0.9023438,0 1.078125,0.5507812 1.078125,0.9023437 0,0.1523438 -0.082031,0.4570313 -0.140625,0.6914063 -0.070312,0.2695312 -0.1523437,0.6445312 -0.1523437,0.84374995 0,1.078125 1.1953125,1.078125 1.3242187,1.078125 0.84375,0 1.1953125,-1.0078125 1.1953125,-1.1484375 0,-0.11718745 -0.1171875,-0.11718745 -0.1171875,-0.11718745 -0.09375,0 -0.1171875,0.0703124 -0.1289062,0.14062495 C 7.0191016,-0.16325 6.5972266,8.125e-4 6.3628516,8.125e-4 c -0.328125,0 -0.3984375,-0.22265625 -0.3984375,-0.609375 0,-0.3046875 0.058594,-0.8203125 0.1054687,-1.1367187 0.011719,-0.140625 0.035156,-0.328125 0.035156,-0.46875 0,-0.7617188 -0.6679688,-1.078125 -0.9374997,-1.171875 z m 0,0"
         style="fill:#000000;fill-opacity:1;fill-rule:nonzero;stroke:none" />
      <path
         id="path37"
         d="m 9.4624609,-0.83707812 c 0.5507811,0 0.9375001,0.375 0.9375001,1.125 0,0.86718752 -0.5039063,1.12500002 -0.9023438,1.12500002 -0.28125,0 -0.890625,-0.082031 -1.1835938,-0.49218752 0.328125,-0.0117188 0.3984375,-0.24609375 0.3984375,-0.38671875 0,-0.22265625 -0.1640625,-0.38671875 -0.3867187,-0.38671875 -0.1875,0 -0.3867188,0.1171875 -0.3867188,0.41015625 0,0.65624997 0.7265625,1.07812497 1.5703125,1.07812497 0.9726561,0 1.6406251,-0.64453122 1.6406251,-1.34765622 0,-0.5390625 -0.445313,-1.08984375 -1.2187501,-1.2421875 0.7382811,-0.26953128 0.9960941,-0.79687498 0.9960941,-1.21874998 0,-0.5507813 -0.632813,-0.9609375 -1.4062503,-0.9609375 -0.7734375,0 -1.359375,0.375 -1.359375,0.9375 0,0.234375 0.1523437,0.3632812 0.3632812,0.3632812 0.2109375,0 0.3515625,-0.1640625 0.3515625,-0.3515625 0,-0.1992187 -0.140625,-0.3515625 -0.3515625,-0.3632812 0.234375,-0.3046875 0.7148438,-0.3867188 0.9726563,-0.3867188 0.3164062,0 0.7617188,0.1523438 0.7617188,0.7617188 0,0.2929687 -0.105469,0.609375 -0.2812501,0.8320312 -0.234375,0.2578125 -0.421875,0.28125 -0.7734375,0.2929688 -0.1757812,0.023437 -0.1875,0.023437 -0.2226562,0.023437 -0.011719,0 -0.070312,0.011719 -0.070312,0.09375 0,0.09375 0.058594,0.09375 0.1757812,0.09375 z m 0,0"
         style="fill:#000000;fill-opacity:1;fill-rule:nonzero;stroke:none" />
    </g>
    <path
       id="path38"
       d="M 169.24864,-17.58157 H 141.61166"
       style="fill:none;stroke:#000000;stroke-width:0.3985;stroke-linecap:butt;stroke-linejoin:miter;stroke-miterlimit:10;stroke-dasharray:none;stroke-opacity:1"
       transform="matrix(1.3333333,0,0,-1.3333333,52.058667,162.98667)" />
    <path
       id="path39"
       d="m 147.3938,-7.89049 c -1.28223,-2.74894 -2.0479,-6.20047 -2.0479,-9.23379"
       style="fill:none;stroke:#000000;stroke-width:0.3985;stroke-linecap:butt;stroke-linejoin:miter;stroke-miterlimit:10;stroke-dasharray:none;stroke-opacity:1"
       transform="matrix(1.3333333,0,0,-1.3333333,52.058667,162.98667)" />
    <path
       id="path40"
       d="M -1.19551,1.59401 C -1.09587,0.99626 0,0.09961 0.29886,0 0,-0.09961 -1.09587,-0.99626 -1.19551,-1.59401"
       style="fill:none;stroke:#000000;stroke-width:0.31879;stroke-linecap:round;stroke-linejoin:round;stroke-miterlimit:10;stroke-dasharray:none;stroke-opacity:1"
       transform="matrix(0.56361333,-1.2083333,-1.2083333,-0.56361333,248.58373,173.50733)" />
    <path
       id="path41"
       d="M -1.19551,1.59401 C -1.09587,0.99626 0,0.09961 0.29886,0 0,-0.09961 -1.09587,-0.99626 -1.19551,-1.59401"
       style="fill:none;stroke:#000000;stroke-width:0.31879;stroke-linecap:round;stroke-linejoin:round;stroke-miterlimit:10;stroke-dasharray:none;stroke-opacity:1"
       transform="matrix(0,1.3333333,1.3333333,0,245.8532,185.81904)" />
    <g
       id="g41"
       aria-label="θ&#10;c"
       transform="matrix(1.3333333,0,0,1.3333333,229.73467,182.12533)">
      <path
         id="path42"
         d="m 4.5349375,-4.9807187 c 0,-0.65625 -0.1875,-2.0390625 -1.1953125,-2.0390625 -1.3828125,0 -2.91796875,2.8007812 -2.91796875,5.0859375 0,0.93749995 0.28125,2.03906245 1.19531255,2.03906245 1.40625,0 2.9179687,-2.85937495 2.9179687,-5.08593745 z m -3.0585937,1.359375 c 0.1640625,-0.6328125 0.3632812,-1.4296875 0.7617187,-2.1328125 0.2695313,-0.4921875 0.6445313,-1.0546875 1.0898438,-1.0546875 0.4921875,0 0.5507812,0.6445312 0.5507812,1.2070312 0,0.4921875 -0.082031,0.9960938 -0.328125,1.9804688 z m 1.9921875,0.328125 c -0.1171875,0.4570312 -0.3164063,1.3007812 -0.703125,2.015625 -0.3398438,0.67968745 -0.7265625,1.17187495 -1.1484375,1.17187495 -0.328125,0 -0.5390625,-0.29296875 -0.5390625,-1.21874995 0,-0.421875 0.058594,-0.9960938 0.3164062,-1.96875 z m 0,0"
         style="fill:#000000;fill-opacity:1;fill-rule:nonzero;stroke:none" />
      <path
         id="path43"
         d="m 7.7341563,-1.1779844 c -0.2578125,0.046875 -0.3632813,0.23437503 -0.3632813,0.38671878 0,0.1875 0.1523438,0.2578125 0.2695313,0.2578125 0.1640625,0 0.3984375,-0.10546875 0.3984375,-0.4453125 0,-0.46874998 -0.5390625,-0.59765628 -0.9140625,-0.59765628 -1.0429688,0 -2.015625,0.96093753 -2.015625,1.92187503 0,0.609375 0.421875,1.21874997 1.2890625,1.21874997 1.1835937,0 1.734375,-0.69140622 1.734375,-0.78515622 0,-0.046875 -0.070312,-0.1171875 -0.1289063,-0.1171875 -0.035156,0 -0.046875,0.0117188 -0.1054687,0.0703125 C 7.3474375,1.3649844 6.5388438,1.3649844 6.4099375,1.3649844 c -0.5039062,0 -0.7265625,-0.3398438 -0.7265625,-0.77343752 0,-0.19921875 0.1054688,-0.9609375 0.46875,-1.44140625 0.2578125,-0.33984373 0.6210938,-0.53906253 0.9726563,-0.53906253 0.09375,0 0.4335937,0.011719 0.609375,0.2109375 z m 0,0"
         style="fill:#000000;fill-opacity:1;fill-rule:nonzero;stroke:none" />
    </g>
    <path
       id="path44"
       d="M 201.80629,-20.24399 H 260.7689"
       style="fill:none;stroke:#000000;stroke-width:0.3985;stroke-linecap:butt;stroke-linejoin:miter;stroke-miterlimit:10;stroke-dasharray:none;stroke-opacity:1"
       transform="matrix(1.3333333,0,0,-1.3333333,52.058667,162.98667)" />
    <path
       id="path45"
       d="M 201.80629,-20.24399 252.7281,9.46785"
       style="fill:none;stroke:#000000;stroke-width:0.3985;stroke-linecap:butt;stroke-linejoin:miter;stroke-miterlimit:10;stroke-dasharray:none;stroke-opacity:1"
       transform="matrix(1.3333333,0,0,-1.3333333,52.058667,162.98667)" />
    <path
       id="path46"
       d="m 256.6108,-19.7867 c 0,9.24477 -2.5817,18.78023 -7.24132,26.7643"
       style="fill:none;stroke:#000000;stroke-width:0.3985;stroke-linecap:butt;stroke-linejoin:miter;stroke-miterlimit:10;stroke-dasharray:none;stroke-opacity:1"
       transform="matrix(1.3333333,0,0,-1.3333333,52.058667,162.98667)" />
    <path
       id="path47"
       d="M -1.19551,1.59401 C -1.09587,0.99626 0,0.09961 0.29886,0 0,-0.09961 -1.09587,-0.99626 -1.19551,-1.59401"
       style="fill:none;stroke:#000000;stroke-width:0.31879;stroke-linecap:round;stroke-linejoin:round;stroke-miterlimit:10;stroke-dasharray:none;stroke-opacity:1"
       transform="matrix(0,1.3333333,1.3333333,0,394.2064,189.36893)" />
    <path
       id="path48"
       d="M -1.19551,1.59401 C -1.09587,0.99626 0,0.09961 0.29886,0 0,-0.09961 -1.09587,-0.99626 -1.19551,-1.59401"
       style="fill:none;stroke:#000000;stroke-width:0.31879;stroke-linecap:round;stroke-linejoin:round;stroke-miterlimit:10;stroke-dasharray:none;stroke-opacity:1"
       transform="matrix(-0.67204,-1.1514933,-1.1514933,0.67204,384.55131,153.68323)" />
    <g
       id="g48"
       aria-label="θ&#10;n"
       transform="matrix(1.3333333,0,0,1.3333333,401.99067,171.52533)">
      <path
         id="path49"
         d="m 4.5362969,-4.9818906 c 0,-0.65625 -0.1875,-2.0390625 -1.1953125,-2.0390625 -1.3828125,0 -2.91796878,2.8007812 -2.91796878,5.0859375 0,0.93749997 0.28125,2.03906247 1.19531248,2.03906247 1.40625,0 2.9179688,-2.85937497 2.9179688,-5.08593747 z m -3.0585938,1.359375 c 0.1640625,-0.6328125 0.3632813,-1.4296875 0.7617188,-2.1328125 0.2695312,-0.4921875 0.6445312,-1.0546875 1.0898437,-1.0546875 0.4921875,0 0.5507813,0.6445312 0.5507813,1.2070312 0,0.4921875 -0.082031,0.9960938 -0.328125,1.9804688 z m 1.9921875,0.328125 c -0.1171875,0.4570312 -0.3164062,1.3007812 -0.703125,2.015625 -0.3398437,0.67968747 -0.7265625,1.17187497 -1.1484375,1.17187497 -0.328125,0 -0.5390625,-0.29296875 -0.5390625,-1.21874997 0,-0.421875 0.058594,-0.9960938 0.3164063,-1.96875 z m 0,0"
         style="fill:#000000;fill-opacity:1;fill-rule:nonzero;stroke:none" />
      <path
         id="path50"
         d="m 5.5323906,1.059125 c -0.035156,0.082031 -0.070312,0.2578125 -0.070312,0.28125 0,0.1523437 0.1171875,0.2226562 0.234375,0.2226562 0.1289063,0 0.234375,-0.09375 0.2695313,-0.1523437 0.035156,-0.058594 0.09375,-0.2929688 0.1289062,-0.43359375 C 6.1300469,0.8481875 6.2003594,0.5200625 6.2472344,0.34428125 6.2823906,0.1919375 6.3292656,0.03959375 6.3644219,-0.11275 c 0.082031,-0.29296875 0.09375,-0.3515625 0.2929687,-0.6328125 0.1992188,-0.28125 0.5273438,-0.6445313 1.0429688,-0.6445313 0.4101562,0 0.4101562,0.3632813 0.4101562,0.49218755 0,0.421875 -0.2929687,1.1953125 -0.4101562,1.48828125 -0.070312,0.1875 -0.1054688,0.2578125 -0.1054688,0.375 0,0.3632812 0.3046875,0.5976562 0.6679688,0.5976562 0.6914062,0 1.0078125,-0.96093745 1.0078125,-1.0664062 0,-0.09375 -0.09375,-0.09375 -0.1171875,-0.09375 -0.09375,0 -0.1054688,0.046875 -0.1289063,0.1171875 -0.1640625,0.5625 -0.46875,0.84375 -0.7382812,0.84375 -0.1523438,0 -0.1757813,-0.09375 -0.1757813,-0.2460938 0,-0.1523437 0.035156,-0.2460937 0.1523438,-0.56249995 0.09375,-0.2109375 0.375,-0.94921875 0.375,-1.34765625 0,-0.6679688 -0.5390625,-0.7851563 -0.9023438,-0.7851563 -0.5859375,0 -0.9726562,0.3515625 -1.1835937,0.63281255 -0.046875,-0.48046875 -0.4570313,-0.63281255 -0.75,-0.63281255 -0.2929688,0 -0.4570313,0.2109375 -0.5507813,0.375 -0.1523437,0.25781255 -0.2460937,0.65625005 -0.2460937,0.6914063 0,0.0820313 0.09375,0.0820313 0.1171875,0.0820313 0.09375,0 0.1054687,-0.0117188 0.1523437,-0.19921875 0.1054688,-0.42187505 0.234375,-0.76171885 0.515625,-0.76171885 0.1757813,0 0.2226563,0.1523438 0.2226563,0.3398438 0,0.14062505 -0.058594,0.39843755 -0.1054688,0.58593755 -0.046875,0.1875 -0.1171875,0.46875 -0.1523437,0.62109375 z m 0,0"
         style="fill:#000000;fill-opacity:1;fill-rule:nonzero;stroke:none" />
    </g>
    <path
       id="path51"
       d="m 552.22375,110.81664 h 36.85306"
       style="fill:none;stroke:#000000;stroke-width:0.3985;stroke-linecap:butt;stroke-linejoin:miter;stroke-miterlimit:10;stroke-dasharray:none;stroke-opacity:1"
       transform="matrix(1.3333333,0,0,-1.3333333,52.058667,162.98667)" />
    <path
       id="path52"
       d="m 552.22375,110.81664 36.20069,6.86552"
       style="fill:none;stroke:#000000;stroke-width:0.3985;stroke-linecap:butt;stroke-linejoin:miter;stroke-miterlimit:10;stroke-dasharray:none;stroke-opacity:1"
       transform="matrix(1.3333333,0,0,-1.3333333,52.058667,162.98667)" />
    <path
       id="path53"
       d="m 586.12198,111.27539 c 2.6e-4,1.65981 -0.19982,3.77643 -0.50906,5.40711"
       style="fill:none;stroke:#000000;stroke-width:0.3985;stroke-linecap:butt;stroke-linejoin:miter;stroke-miterlimit:10;stroke-dasharray:none;stroke-opacity:1"
       transform="matrix(1.3333333,0,0,-1.3333333,52.058667,162.98667)" />
    <path
       id="path54"
       d="M -1.19551,1.59401 C -1.09587,0.99626 0,0.09961 0.29886,0 0,-0.09961 -1.09587,-0.99626 -1.19551,-1.59401"
       style="fill:none;stroke:#000000;stroke-width:0.31879;stroke-linecap:round;stroke-linejoin:round;stroke-miterlimit:10;stroke-dasharray:none;stroke-opacity:1"
       transform="matrix(-1.2e-4,1.3333067,1.3333067,1.2e-4,833.55464,14.619467)" />
    <path
       id="path55"
       d="M -1.19551,1.59401 C -1.09587,0.99626 0,0.09961 0.29886,0 0,-0.09961 -1.09587,-0.99626 -1.19551,-1.59401"
       style="fill:none;stroke:#000000;stroke-width:0.31879;stroke-linecap:round;stroke-linejoin:round;stroke-miterlimit:10;stroke-dasharray:none;stroke-opacity:1"
       transform="matrix(-0.24834667,-1.30996,-1.30996,0.24834667,832.87589,7.41)" />
    <g
       id="g55"
       aria-label="θ&#10;e"
       transform="matrix(1.3333333,0,0,1.3333333,840.30133,16.308)">
      <path
         id="path56"
         d="m 4.5347422,-4.9800234 c 0,-0.65625 -0.1875,-2.0390625 -1.1953125,-2.0390625 -1.3828125,0 -2.91796876,2.8007812 -2.91796876,5.0859375 0,0.93749996 0.28125,2.03906246 1.19531246,2.03906246 1.40625,0 2.9179688,-2.85937496 2.9179688,-5.08593746 z m -3.0585938,1.359375 c 0.1640625,-0.6328125 0.3632813,-1.4296875 0.7617188,-2.1328125 0.2695312,-0.4921875 0.6445312,-1.0546875 1.0898437,-1.0546875 0.4921875,0 0.5507813,0.6445312 0.5507813,1.2070312 0,0.4921875 -0.082031,0.9960938 -0.328125,1.9804688 z m 1.9921875,0.328125 c -0.1171875,0.4570312 -0.3164062,1.3007812 -0.703125,2.015625 -0.3398437,0.67968746 -0.7265625,1.17187496 -1.1484375,1.17187496 -0.328125,0 -0.5390625,-0.29296875 -0.5390625,-1.21874996 0,-0.421875 0.058594,-0.9960938 0.3164063,-1.96875 z m 0,0"
         style="fill:#000000;fill-opacity:1;fill-rule:nonzero;stroke:none" />
      <path
         id="path57"
         d="m 6.2368906,-0.09916406 c 0.1992188,0 0.75,-0.01171875 1.125,-0.140625 0.515625,-0.1875 0.609375,-0.515625 0.609375,-0.7265625 0,-0.38671874 -0.375,-0.60937504 -0.8554687,-0.60937504 -0.84375,0 -1.96875,0.63281254 -1.96875,1.82812504 0,0.703125 0.4335937,1.31249996 1.2539062,1.31249996 1.1835938,0 1.734375,-0.69140621 1.734375,-0.78515621 0,-0.046875 -0.070312,-0.1171875 -0.1289062,-0.1171875 -0.035156,0 -0.046875,0.0117188 -0.1054688,0.0703125 C 7.3501719,1.3656797 6.5415781,1.3656797 6.4126719,1.3656797 c -0.421875,0 -0.6914063,-0.28125 -0.6914063,-0.84375001 0,-0.09375 0,-0.234375 0.082031,-0.62109375 z m -0.375,-0.1875 c 0.28125,-1.01953124 1.0546875,-1.10156254 1.2539063,-1.10156254 0.3046875,0 0.5625,0.1523438 0.5625,0.42187504 0,0.6796875 -1.1835938,0.6796875 -1.4765625,0.6796875 z m 0,0"
         style="fill:#000000;fill-opacity:1;fill-rule:nonzero;stroke:none" />
    </g>
    <path
       id="path58"
       d="M 1.40903,0 C 1.40903,0.77818 0.77818,1.40903 0,1.40903 -0.77818,1.40903 -1.40903,0.77818 -1.40903,0 c 0,-0.77818 0.63085,-1.40903 1.40903,-1.40903 0.77818,0 1.40903,0.63085 1.40903,1.40903 z"
       style="fill:#ffffff;fill-opacity:1;fill-rule:nonzero;stroke:#000000;stroke-width:0.3985;stroke-linecap:butt;stroke-linejoin:miter;stroke-miterlimit:10;stroke-dasharray:none;stroke-opacity:1"
       transform="matrix(1.3333333,0,0,-1.3333333,52.058667,162.98667)" />
    <path
       id="path59"
       d="m 120.49275,0 c 0,0.77818 -0.63084,1.40903 -1.40904,1.40903 -0.77818,0 -1.40903,-0.63085 -1.40903,-1.40903 0,-0.77818 0.63085,-1.40903 1.40903,-1.40903 0.7782,0 1.40904,0.63085 1.40904,1.40903 z"
       style="fill:#ffffff;fill-opacity:1;fill-rule:nonzero;stroke:#000000;stroke-width:0.3985;stroke-linecap:butt;stroke-linejoin:miter;stroke-miterlimit:10;stroke-dasharray:none;stroke-opacity:1"
       transform="matrix(1.3333333,0,0,-1.3333333,52.058667,162.98667)" />
    <path
       id="path60"
       d="m 144.27129,-5.27383 c 0,0.77819 -0.63086,1.40904 -1.40905,1.40904 -0.77819,0 -1.40904,-0.63085 -1.40904,-1.40904 0,-0.77819 0.63085,-1.40905 1.40904,-1.40905 0.77819,0 1.40905,0.63086 1.40905,1.40905 z"
       style="fill:#ffffff;fill-opacity:1;fill-rule:nonzero;stroke:#000000;stroke-width:0.3985;stroke-linecap:butt;stroke-linejoin:miter;stroke-miterlimit:10;stroke-dasharray:none;stroke-opacity:1"
       transform="matrix(1.3333333,0,0,-1.3333333,52.058667,162.98667)" />
    <path
       id="path61"
       d="m 170.65767,-17.58157 c 0,0.77819 -0.63085,1.40904 -1.40903,1.40904 -0.7782,0 -1.40904,-0.63085 -1.40904,-1.40904 0,-0.77819 0.63084,-1.40903 1.40904,-1.40903 0.77818,0 1.40903,0.63084 1.40903,1.40903 z"
       style="fill:#ffffff;fill-opacity:1;fill-rule:nonzero;stroke:#000000;stroke-width:0.3985;stroke-linecap:butt;stroke-linejoin:miter;stroke-miterlimit:10;stroke-dasharray:none;stroke-opacity:1"
       transform="matrix(1.3333333,0,0,-1.3333333,52.058667,162.98667)" />
    <path
       id="path62"
       d="m 193.96724,-22.75363 c 0,0.7782 -0.63086,1.40904 -1.40904,1.40904 -0.7782,0 -1.40905,-0.63084 -1.40905,-1.40904 0,-0.77818 0.63085,-1.40904 1.40905,-1.40904 0.77818,0 1.40904,0.63086 1.40904,1.40904 z"
       style="fill:#ffffff;fill-opacity:1;fill-rule:nonzero;stroke:#000000;stroke-width:0.3985;stroke-linecap:butt;stroke-linejoin:miter;stroke-miterlimit:10;stroke-dasharray:none;stroke-opacity:1"
       transform="matrix(1.3333333,0,0,-1.3333333,52.058667,162.98667)" />
    <path
       id="path63"
       d="m 203.22461,-20.24496 c 0,0.77818 -0.63084,1.40904 -1.40904,1.40904 -0.77819,0 -1.40903,-0.63086 -1.40903,-1.40904 0,-0.7782 0.63084,-1.40904 1.40903,-1.40904 0.7782,0 1.40904,0.63084 1.40904,1.40904 z"
       style="fill:#ffffff;fill-opacity:1;fill-rule:nonzero;stroke:#000000;stroke-width:0.3985;stroke-linecap:butt;stroke-linejoin:miter;stroke-miterlimit:10;stroke-dasharray:none;stroke-opacity:1"
       transform="matrix(1.3333333,0,0,-1.3333333,52.058667,162.98667)" />
    <path
       id="path64"
       d="m 553.6581,110.82178 c 0,0.77818 -0.63085,1.40904 -1.40905,1.40904 -0.77818,0 -1.40904,-0.63086 -1.40904,-1.40904 0,-0.77818 0.63086,-1.40905 1.40904,-1.40905 0.7782,0 1.40905,0.63087 1.40905,1.40905 z"
       style="fill:#ffffff;fill-opacity:1;fill-rule:nonzero;stroke:#000000;stroke-width:0.3985;stroke-linecap:butt;stroke-linejoin:miter;stroke-miterlimit:10;stroke-dasharray:none;stroke-opacity:1"
       transform="matrix(1.3333333,0,0,-1.3333333,52.058667,162.98667)" />
  </g>
</svg>
